<?xml version="1.0" standalone="no"?>
<!DOCTYPE svg PUBLIC "-//W3C//DTD SVG 20010904//EN"
 "http://www.w3.org/TR/2001/REC-SVG-20010904/DTD/svg10.dtd">
<svg version="1.0" xmlns="http://www.w3.org/2000/svg"
 width="512.000000pt" height="512.000000pt" viewBox="0 0 512.000000 512.000000"
 preserveAspectRatio="xMidYMid meet">

<g transform="translate(0.000000,512.000000) scale(0.100000,-0.100000)"
fill="#000000" stroke="none">
<path d="M0 2560 l0 -2560 2560 0 2560 0 0 2560 0 2560 -2560 0 -2560 0 0
-2560z m3115 1330 c23 -8 66 -40 101 -75 79 -78 96 -125 92 -261 l-3 -99 -147
-3 -148 -3 0 76 0 75 -745 0 -745 0 2 -742 3 -743 73 -3 72 -3 0 -150 0 -151
-122 4 c-103 3 -130 7 -166 26 -58 31 -119 94 -146 151 -21 46 -21 48 -21 866
0 813 0 820 21 866 42 91 126 161 215 178 24 5 400 8 834 7 658 -1 797 -4 830
-16z m591 -597 c70 -24 165 -120 185 -188 12 -42 14 -186 14 -860 l0 -810 -24
-45 c-32 -61 -86 -116 -146 -148 l-50 -27 -825 0 c-823 0 -825 0 -871 21 -57
26 -120 88 -151 146 l-23 43 0 835 0 835 23 42 c35 67 79 110 144 143 l61 30
807 0 c727 0 811 -2 856 -17z m-413 -2505 c148 -44 174 -282 39 -370 -59 -38
-153 -31 -210 17 -44 37 -63 86 -63 160 0 99 39 162 118 191 48 17 66 17 116
2z m-2573 -193 l0 -195 -40 0 -40 0 0 195 0 195 40 0 40 0 0 -195z m294 125
c22 -36 58 -97 80 -135 l41 -71 -3 138 -4 138 46 0 46 0 0 -195 0 -195 -48 0
-48 0 -82 136 -82 137 0 -137 0 -136 -40 0 -40 0 0 196 0 195 47 -3 c45 -3 47
-4 87 -68z m664 38 c-3 -33 -4 -33 -60 -36 l-58 -3 0 -159 0 -160 -45 0 -45 0
0 160 0 159 -57 3 c-57 3 -58 3 -61 36 l-3 32 166 0 166 0 -3 -32z m402 -3 l0
-35 -90 0 -90 0 0 -45 0 -45 86 0 85 0 -3 -32 -3 -33 -82 -3 -83 -3 0 -44 0
-45 90 0 90 0 0 -35 0 -35 -130 0 -130 0 0 195 0 195 130 0 130 0 0 -35z m376
19 c41 -20 64 -59 64 -109 0 -41 -22 -89 -47 -104 -17 -9 -15 -16 20 -79 20
-39 37 -73 37 -76 0 -3 -19 -6 -43 -6 -43 0 -43 0 -81 70 -33 62 -41 70 -67
70 l-29 0 0 -70 0 -70 -40 0 -40 0 0 195 0 195 96 0 c68 0 106 -5 130 -16z
m464 -19 l0 -35 -85 0 -85 0 0 -50 0 -50 80 0 80 0 0 -35 0 -35 -80 0 -80 0 0
-75 0 -75 -40 0 -40 0 0 195 0 195 125 0 125 0 0 -35z m932 -161 l67 -195 -46
3 c-45 3 -47 4 -61 46 l-14 42 -68 0 -67 0 -13 -45 -13 -45 -46 0 -47 0 66
195 65 195 55 0 55 0 67 -196z m367 71 c23 -68 41 -132 42 -142 0 -10 5 -5 10
12 5 17 26 81 46 143 l37 112 63 0 63 0 0 -195 0 -195 -40 0 -40 0 0 148 -1
147 -47 -145 -48 -145 -36 -3 c-41 -4 -34 -16 -94 163 l-43 130 -1 -147 0
-148 -40 0 -40 0 0 195 0 195 64 0 65 0 40 -125z"/>
<path d="M2110 2860 l0 -150 745 0 745 0 0 150 0 150 -745 0 -745 0 0 -150z"/>
<path d="M2112 2263 l3 -148 148 -3 147 -3 0 151 0 150 -150 0 -151 0 3 -147z"/>
<path d="M2710 2260 l0 -151 148 3 147 3 3 148 3 147 -151 0 -150 0 0 -150z"/>
<path d="M3312 2263 l3 -148 140 0 140 0 3 148 3 147 -146 0 -146 0 3 -147z"/>
<path d="M2114 1797 c-2 -7 -3 -71 -2 -143 l3 -129 148 -3 147 -3 0 146 0 145
-145 0 c-110 0 -147 -3 -151 -13z"/>
<path d="M2710 1665 l0 -146 148 3 147 3 0 140 0 140 -147 3 -148 3 0 -146z"/>
<path d="M3317 1803 c-4 -3 -7 -69 -7 -145 l0 -138 145 0 145 0 0 145 0 145
-138 0 c-76 0 -142 -3 -145 -7z"/>
<path d="M3187 709 c-43 -25 -59 -120 -33 -184 37 -88 154 -68 176 30 19 86
-26 165 -93 165 -18 0 -40 -5 -50 -11z"/>
<path d="M2310 665 l0 -55 49 0 c54 0 74 15 74 57 0 35 -27 53 -80 53 l-43 0
0 -55z"/>
<path d="M3712 653 c-6 -27 -14 -58 -18 -70 -6 -21 -3 -23 36 -23 39 0 42 2
36 23 -4 12 -12 43 -18 70 -6 26 -14 47 -18 47 -4 0 -12 -21 -18 -47z"/>
</g>
</svg>
